Saira-PARAMETRIC-JUN_GRAD-min.ufo
<glyph name="quotesingle" format="2">
  <advance width="157"/>
  <unicode hex="0027"/>
  <anchor x="0" y="0" name="#entry"/>
  <anchor x="176.533" y="0" name="#exit"/>
  <outline>
    <contour>
      <point x="55" y="444" type="line"/>
      <point x="111" y="444" type="line"/>
      <point x="123" y="612" type="line"/>
      <point x="123" y="688" type="line"/>
      <point x="44" y="688" type="line"/>
      <point x="44" y="612" type="line"/>
    </contour>
  </outline>
</glyph>
<glyph name="comma" format="2">
  <advance width="210"/>
  <unicode hex="002C"/>
  <outline>
    <contour>
      <point x="44" y="-106.667" type="line"/>
      <point x="117.333" y="-106.667"/>
      <point x="132.667" y="-88.667"/>
      <point x="132.667" y="0" type="curve" smooth="yes"/>
      <point x="132.667" y="80.667" type="line"/>
      <point x="52" y="80.667" type="line"/>
      <point x="52" y="0" type="line"/>
      <point x="86.333" y="0" type="line"/>
      <point x="86.333" y="-23" type="line" smooth="yes"/>
      <point x="86.333" y="-64.333"/>
      <point x="79" y="-72.667"/>
      <point x="44" y="-72.667" type="curve"/>
    </contour>
  </outline>
</glyph>
<glyph name="period" format="2">
  <advance width="210"/>
  <unicode hex="002E"/>
  <outline>
    <contour>
      <point x="52" y="0" type="line"/>
      <point x="132.667" y="0" type="line"/>
      <point x="132.667" y="80.667" type="line"/>
      <point x="52" y="80.667" type="line"/>
    </contour>
  </outline>
</glyph>
<glyph name="A" format="2">
  <advance width="626"/>
  <unicode hex="0041"/>
  <anchor x="259" y="0" name="bottom"/>
  <anchor x="502" y="10" name="ogonek"/>
  <anchor x="259" y="688" name="top"/>
  <outline>
    <contour>
      <point x="11" y="0" type="line"/>
      <point x="73" y="0" type="line"/>
      <point x="302" y="636" type="line"/>
      <point x="307" y="636" type="line"/>
      <point x="535" y="0" type="line"/>
      <point x="597" y="0" type="line"/>
      <point x="348" y="688" type="line"/>
      <point x="261" y="688" type="line"/>
    </contour>
    <contour>
      <point x="119" y="200" type="line"/>
      <point x="489" y="200" type="line"/>
      <point x="470" y="253" type="line"/>
      <point x="139" y="253" type="line"/>
    </contour>
  </outline>
</glyph>
<glyph name="B" format="2">
  <advance width="699"/>
  <unicode hex="0042"/>
  <anchor x="325" y="0" name="bottom"/>
  <anchor x="325" y="688" name="top"/>
  <outline>
    <contour>
      <point x="108" y="0" type="line"/>
      <point x="374" y="0" type="line" smooth="yes"/>
      <point x="556" y="0"/>
      <point x="606" y="39"/>
      <point x="606" y="183" type="curve" smooth="yes"/>
      <point x="606" y="190" type="line" smooth="yes"/>
      <point x="606" y="328"/>
      <point x="556" y="368"/>
      <point x="374" y="368" type="curve" smooth="yes"/>
      <point x="154" y="368" type="line"/>
      <point x="154" y="325" type="line"/>
      <point x="374" y="325" type="line" smooth="yes"/>
      <point x="521" y="325"/>
      <point x="548" y="306"/>
      <point x="548" y="204" type="curve" smooth="yes"/>
      <point x="548" y="169" type="line" smooth="yes"/>
      <point x="548" y="70"/>
      <point x="521" y="53"/>
      <point x="374" y="53" type="curve" smooth="yes"/>
      <point x="140" y="53" type="line"/>
      <point x="166" y="31" type="line"/>
      <point x="166" y="658" type="line"/>
      <point x="140" y="635" type="line"/>
      <point x="360" y="635" type="line" smooth="yes"/>
      <point x="507" y="635"/>
      <point x="534" y="619"/>
      <point x="534" y="525" type="curve" smooth="yes"/>
      <point x="534" y="490" type="line" smooth="yes"/>
      <point x="534" y="393"/>
      <point x="507" y="375"/>
      <point x="360" y="375" type="curve" smooth="yes"/>
      <point x="154" y="375" type="line"/>
      <point x="154" y="332" type="line"/>
      <point x="360" y="332" type="line" smooth="yes"/>
      <point x="542" y="332"/>
      <point x="592" y="371"/>
      <point x="592" y="504" type="curve" smooth="yes"/>
      <point x="592" y="511" type="line" smooth="yes"/>
      <point x="592" y="650"/>
      <point x="542" y="688"/>
      <point x="360" y="688" type="curve" smooth="yes"/>
      <point x="108" y="688" type="line"/>
    </contour>
  </outline>
</glyph>
<glyph name="C" format="2">
  <advance width="609"/>
  <unicode hex="0043"/>
  <anchor x="297" y="0" name="bottom"/>
  <anchor x="297" y="688" name="top"/>
  <outline>
    <contour>
      <point x="343" y="-8" type="curve" smooth="yes"/>
      <point x="402" y="-8"/>
      <point x="469" y="-3"/>
      <point x="510" y="6" type="curve"/>
      <point x="510" y="56" type="line"/>
      <point x="472" y="49"/>
      <point x="408" y="45"/>
      <point x="343" y="45" type="curve" smooth="yes"/>
      <point x="157" y="45"/>
      <point x="140" y="67"/>
      <point x="140" y="310" type="curve" smooth="yes"/>
      <point x="140" y="378" type="line" smooth="yes"/>
      <point x="140" y="620"/>
      <point x="158" y="643"/>
      <point x="343" y="643" type="curve" smooth="yes"/>
      <point x="404" y="643"/>
      <point x="463" y="639"/>
      <point x="506" y="631" type="curve"/>
      <point x="506" y="680" type="line"/>
      <point x="465" y="690"/>
      <point x="398" y="696"/>
      <point x="343" y="696" type="curve" smooth="yes"/>
      <point x="122" y="696"/>
      <point x="82" y="644"/>
      <point x="82" y="349" type="curve" smooth="yes"/>
      <point x="82" y="339" type="line" smooth="yes"/>
      <point x="82" y="44"/>
      <point x="121" y="-8"/>
    </contour>
  </outline>
</glyph>
<glyph name="D" format="2">
  <advance width="680"/>
  <unicode hex="0044"/>
  <anchor x="340" y="0" name="bottom"/>
  <anchor x="176" y="344" name="center"/>
  <anchor x="340" y="688" name="top"/>
  <outline>
    <contour>
      <point x="108" y="0" type="line"/>
      <point x="309" y="0" type="line" smooth="yes"/>
      <point x="552" y="0"/>
      <point x="595" y="51"/>
      <point x="595" y="339" type="curve" smooth="yes"/>
      <point x="595" y="349" type="line" smooth="yes"/>
      <point x="595" y="637"/>
      <point x="552" y="688"/>
      <point x="309" y="688" type="curve" smooth="yes"/>
      <point x="108" y="688" type="line"/>
    </contour>
    <contour>
      <point x="166" y="26" type="line"/>
      <point x="166" y="661" type="line"/>
      <point x="139" y="634" type="line"/>
      <point x="309" y="634" type="line" smooth="yes"/>
      <point x="516" y="634"/>
      <point x="537" y="611"/>
      <point x="537" y="377" type="curve" smooth="yes"/>
      <point x="537" y="311" type="line" smooth="yes"/>
      <point x="537" y="76"/>
      <point x="516" y="53"/>
      <point x="309" y="53" type="curve" smooth="yes"/>
      <point x="139" y="53" type="line"/>
    </contour>
  </outline>
</glyph>
<glyph name="E" format="2">
  <advance width="593"/>
  <unicode hex="0045"/>
  <anchor x="305" y="0" name="bottom"/>
  <anchor x="539" y="10" name="ogonek"/>
  <anchor x="305" y="688" name="top"/>
  <anchor x="31" y="688" name="topleft"/>
  <outline>
    <contour>
      <point x="140" y="374" type="line"/>
      <point x="140" y="322" type="line"/>
      <point x="497" y="322" type="line"/>
      <point x="497" y="374" type="line"/>
    </contour>
    <contour>
      <point x="166" y="26" type="line"/>
      <point x="166" y="662" type="line"/>
      <point x="140" y="635" type="line"/>
      <point x="544" y="635" type="line"/>
      <point x="544" y="688" type="line"/>
      <point x="108" y="688" type="line"/>
      <point x="108" y="0" type="line"/>
      <point x="544" y="0" type="line"/>
      <point x="544" y="53" type="line"/>
      <point x="140" y="53" type="line"/>
    </contour>
  </outline>
</glyph>
<glyph name="F" format="2">
  <advance width="573"/>
  <unicode hex="0046"/>
  <anchor x="294" y="0" name="bottom"/>
  <anchor x="294" y="688" name="top"/>
  <outline>
    <contour>
      <point x="140" y="361" type="line"/>
      <point x="140" y="308" type="line"/>
      <point x="485" y="308" type="line"/>
      <point x="485" y="361" type="line"/>
    </contour>
    <contour>
      <point x="166" y="0" type="line"/>
      <point x="166" y="662" type="line"/>
      <point x="140" y="635" type="line"/>
      <point x="532" y="635" type="line"/>
      <point x="532" y="688" type="line"/>
      <point x="108" y="688" type="line"/>
      <point x="108" y="0" type="line"/>
    </contour>
  </outline>
</glyph>
<glyph name="G" format="2">
  <advance width="679"/>
  <unicode hex="0047"/>
  <anchor x="339" y="0" name="bottom"/>
  <anchor x="339" y="688" name="top"/>
  <outline>
    <contour>
      <point x="376" y="-8" type="curve" smooth="yes"/>
      <point x="447" y="-8"/>
      <point x="529" y="-1"/>
      <point x="577" y="11" type="curve"/>
      <point x="577" y="360" type="line"/>
      <point x="336" y="360" type="line"/>
      <point x="336" y="310" type="line"/>
      <point x="520" y="310" type="line"/>
      <point x="520" y="53" type="line"/>
      <point x="482" y="48"/>
      <point x="430" y="45"/>
      <point x="373" y="45" type="curve" smooth="yes"/>
      <point x="160" y="45"/>
      <point x="140" y="67"/>
      <point x="140" y="310" type="curve" smooth="yes"/>
      <point x="140" y="378" type="line" smooth="yes"/>
      <point x="140" y="620"/>
      <point x="160" y="643"/>
      <point x="373" y="643" type="curve" smooth="yes"/>
      <point x="450" y="643"/>
      <point x="520" y="639"/>
      <point x="573" y="631" type="curve"/>
      <point x="573" y="680" type="line"/>
      <point x="525" y="690"/>
      <point x="442" y="696"/>
      <point x="374" y="696" type="curve" smooth="yes"/>
      <point x="126" y="696"/>
      <point x="82" y="644"/>
      <point x="82" y="349" type="curve" smooth="yes"/>
      <point x="82" y="339" type="line" smooth="yes"/>
      <point x="82" y="44"/>
      <point x="126" y="-8"/>
    </contour>
  </outline>
</glyph>
<glyph name="H" format="2">
  <advance width="714"/>
  <unicode hex="0048"/>
  <anchor x="349" y="0" name="bottom"/>
  <anchor x="349" y="550" name="center"/>
  <anchor x="349" y="688" name="top"/>
  <anchor x="23" y="688" name="topleft"/>
  <outline>
    <contour>
      <point x="108" y="0" type="line"/>
      <point x="166" y="0" type="line"/>
      <point x="166" y="347" type="line"/>
      <point x="139" y="321" type="line"/>
      <point x="575" y="321" type="line"/>
      <point x="548" y="347" type="line"/>
      <point x="548" y="0" type="line"/>
      <point x="606" y="0" type="line"/>
      <point x="606" y="688" type="line"/>
      <point x="548" y="688" type="line"/>
      <point x="548" y="347" type="line"/>
      <point x="575" y="373" type="line"/>
      <point x="139" y="373" type="line"/>
      <point x="166" y="347" type="line"/>
      <point x="166" y="688" type="line"/>
      <point x="108" y="688" type="line"/>
    </contour>
  </outline>
</glyph>
<glyph name="I" format="2">
  <advance width="282"/>
  <unicode hex="0049"/>
  <anchor x="137" y="0" name="bottom"/>
  <anchor x="238" y="10" name="ogonek"/>
  <anchor x="137" y="688" name="top"/>
  <anchor x="31" y="688" name="topleft"/>
  <outline>
    <contour>
      <point x="108" y="0" type="line"/>
      <point x="166" y="0" type="line"/>
      <point x="166" y="688" type="line"/>
      <point x="108" y="688" type="line"/>
    </contour>
  </outline>
</glyph>
<glyph name="J" format="2">
  <advance width="319"/>
  <unicode hex="004A"/>
  <anchor x="146" y="0" name="bottom"/>
  <anchor x="146" y="688" name="top"/>
  <outline>
    <contour>
      <point x="191" y="688" type="line"/>
      <point x="133" y="688" type="line"/>
      <point x="133" y="141" type="line" smooth="yes"/>
      <point x="133" y="61"/>
      <point x="112" y="46"/>
      <point x="5" y="46" type="curve"/>
      <point x="5" y="-4" type="line"/>
      <point x="151" y="-4"/>
      <point x="191" y="29"/>
      <point x="191" y="148" type="curve" smooth="yes"/>
    </contour>
  </outline>
</glyph>
<glyph name="K" format="2">
  <advance width="647"/>
  <unicode hex="004B"/>
  <anchor x="278" y="0" name="bottom"/>
  <anchor x="278" y="688" name="top"/>
  <outline>
    <contour>
      <point x="161" y="324" type="line"/>
      <point x="306" y="324" type="line"/>
      <point x="549" y="0" type="line"/>
      <point x="619" y="0" type="line"/>
      <point x="356" y="350" type="line"/>
      <point x="611" y="688" type="line"/>
      <point x="541" y="688" type="line"/>
      <point x="307" y="376" type="line"/>
      <point x="161" y="376" type="line"/>
    </contour>
    <contour>
      <point x="108" y="0" type="line"/>
      <point x="166" y="0" type="line"/>
      <point x="166" y="688" type="line"/>
      <point x="108" y="688" type="line"/>
    </contour>
  </outline>
</glyph>
<glyph name="L" format="2">
  <advance width="543"/>
  <unicode hex="004C"/>
  <anchor x="279" y="0" name="bottom"/>
  <anchor x="279" y="344" name="center"/>
  <anchor x="279" y="688" name="top"/>
  <anchor x="527" y="688" name="topright"/>
  <outline>
    <contour>
      <point x="108" y="0" type="line"/>
      <point x="521" y="0" type="line"/>
      <point x="521" y="53" type="line"/>
      <point x="140" y="53" type="line"/>
      <point x="166" y="26" type="line"/>
      <point x="166" y="688" type="line"/>
      <point x="108" y="688" type="line"/>
    </contour>
  </outline>
</glyph>
<glyph name="M" format="2">
  <advance width="816"/>
  <unicode hex="004D"/>
  <outline>
    <contour>
      <point x="108" y="0" type="line"/>
      <point x="166" y="0" type="line"/>
      <point x="166" y="600" type="line"/>
      <point x="363" y="0" type="line"/>
      <point x="435" y="0" type="line"/>
      <point x="632" y="600" type="line"/>
      <point x="632" y="0" type="line"/>
      <point x="690" y="0" type="line"/>
      <point x="690" y="688" type="line"/>
      <point x="602" y="688" type="line"/>
      <point x="399" y="70" type="line"/>
      <point x="196" y="688" type="line"/>
      <point x="108" y="688" type="line"/>
    </contour>
  </outline>
</glyph>
<glyph name="N" format="2">
  <advance width="714"/>
  <unicode hex="004E"/>
  <anchor x="329" y="0" name="bottom"/>
  <anchor x="329" y="688" name="top"/>
  <outline>
    <contour>
      <point x="108" y="0" type="line"/>
      <point x="166" y="0" type="line"/>
      <point x="166" y="586" type="line"/>
      <point x="548" y="0" type="line"/>
      <point x="606" y="0" type="line"/>
      <point x="606" y="688" type="line"/>
      <point x="548" y="688" type="line"/>
      <point x="548" y="102" type="line"/>
      <point x="166" y="688" type="line"/>
      <point x="108" y="688" type="line"/>
    </contour>
  </outline>
</glyph>
<glyph name="O" format="2">
  <advance width="708"/>
  <unicode hex="004F"/>
  <anchor x="354" y="-2" name="bottom"/>
  <anchor x="348" y="344" name="center"/>
  <anchor x="625" y="10" name="ogonek"/>
  <anchor x="348" y="688" name="top"/>
  <anchor x="22" y="688" name="topleft"/>
  <anchor x="674" y="688" name="topright"/>
  <outline>
    <contour>
      <point x="354" y="-8" type="curve" smooth="yes"/>
      <point x="585" y="-8"/>
      <point x="626" y="44"/>
      <point x="626" y="339" type="curve" smooth="yes"/>
      <point x="626" y="349" type="line" smooth="yes"/>
      <point x="626" y="644"/>
      <point x="585" y="696"/>
      <point x="354" y="696" type="curve" smooth="yes"/>
      <point x="123" y="696"/>
      <point x="82" y="644"/>
      <point x="82" y="349" type="curve" smooth="yes"/>
      <point x="82" y="339" type="line" smooth="yes"/>
      <point x="82" y="44"/>
      <point x="123" y="-8"/>
    </contour>
    <contour>
      <point x="354" y="45" type="curve" smooth="yes"/>
      <point x="160" y="45"/>
      <point x="140" y="68"/>
      <point x="140" y="307" type="curve" smooth="yes"/>
      <point x="140" y="381" type="line" smooth="yes"/>
      <point x="140" y="620"/>
      <point x="160" y="643"/>
      <point x="354" y="643" type="curve" smooth="yes"/>
      <point x="548" y="643"/>
      <point x="568" y="620"/>
      <point x="568" y="381" type="curve" smooth="yes"/>
      <point x="568" y="307" type="line" smooth="yes"/>
      <point x="568" y="68"/>
      <point x="548" y="45"/>
    </contour>
  </outline>
</glyph>
<glyph name="P" format="2">
  <advance width="585"/>
  <unicode hex="0050"/>
  <anchor x="297" y="0" name="bottom"/>
  <anchor x="297" y="688" name="top"/>
  <outline>
    <contour>
      <point x="108" y="0" type="line"/>
      <point x="166" y="0" type="line"/>
      <point x="166" y="658" type="line"/>
      <point x="140" y="635" type="line"/>
      <point x="321" y="635" type="line" smooth="yes"/>
      <point x="477" y="635"/>
      <point x="494" y="621"/>
      <point x="494" y="490" type="curve" smooth="yes"/>
      <point x="494" y="456" type="line" smooth="yes"/>
      <point x="494" y="325"/>
      <point x="477" y="310"/>
      <point x="321" y="310" type="curve" smooth="yes"/>
      <point x="155" y="310" type="line"/>
      <point x="155" y="258" type="line"/>
      <point x="317" y="258" type="line" smooth="yes"/>
      <point x="516" y="258"/>
      <point x="552" y="290"/>
      <point x="552" y="469" type="curve" smooth="yes"/>
      <point x="552" y="476" type="line" smooth="yes"/>
      <point x="552" y="656"/>
      <point x="516" y="688"/>
      <point x="317" y="688" type="curve" smooth="yes"/>
      <point x="108" y="688" type="line"/>
    </contour>
  </outline>
</glyph>
<glyph name="R" format="2">
  <advance width="640"/>
  <unicode hex="0052"/>
  <anchor x="321" y="0" name="bottom"/>
  <anchor x="321" y="688" name="top"/>
  <outline>
    <contour>
      <point x="108" y="0" type="line"/>
      <point x="166" y="0" type="line"/>
      <point x="166" y="658" type="line"/>
      <point x="140" y="635" type="line"/>
      <point x="331" y="635" type="line" smooth="yes"/>
      <point x="488" y="635"/>
      <point x="504" y="622"/>
      <point x="504" y="500" type="curve" smooth="yes"/>
      <point x="504" y="466" type="line" smooth="yes"/>
      <point x="504" y="344"/>
      <point x="488" y="330"/>
      <point x="331" y="330" type="curve" smooth="yes"/>
      <point x="155" y="330" type="line"/>
      <point x="155" y="278" type="line"/>
      <point x="327" y="278" type="line" smooth="yes"/>
      <point x="526" y="278"/>
      <point x="562" y="307"/>
      <point x="562" y="477" type="curve" smooth="yes"/>
      <point x="562" y="484" type="line" smooth="yes"/>
      <point x="562" y="657"/>
      <point x="526" y="688"/>
      <point x="327" y="688" type="curve" smooth="yes"/>
      <point x="108" y="688" type="line"/>
    </contour>
    <contour>
      <point x="503" y="0" type="line"/>
      <point x="568" y="0" type="line"/>
      <point x="443" y="295" type="line"/>
      <point x="381" y="295" type="line"/>
    </contour>
  </outline>
</glyph>
<glyph name="S" format="2">
  <advance width="636"/>
  <unicode hex="0053"/>
  <anchor x="313" y="0" name="bottom"/>
  <anchor x="313" y="688" name="top"/>
  <outline>
    <contour>
      <point x="318" y="-8" type="curve" smooth="yes"/>
      <point x="495" y="-8"/>
      <point x="550" y="39"/>
      <point x="550" y="190" type="curve" smooth="yes"/>
      <point x="550" y="315"/>
      <point x="521" y="353"/>
      <point x="419" y="364" type="curve" smooth="yes"/>
      <point x="223" y="384" type="line" smooth="yes"/>
      <point x="147" y="393"/>
      <point x="134" y="410"/>
      <point x="134" y="502" type="curve" smooth="yes"/>
      <point x="134" y="616"/>
      <point x="166" y="643"/>
      <point x="304" y="643" type="curve" smooth="yes"/>
      <point x="371" y="643"/>
      <point x="457" y="636"/>
      <point x="522" y="626" type="curve"/>
      <point x="522" y="677" type="line"/>
      <point x="447" y="689"/>
      <point x="363" y="696"/>
      <point x="308" y="696" type="curve" smooth="yes"/>
      <point x="132" y="696"/>
      <point x="76" y="650"/>
      <point x="76" y="504" type="curve" smooth="yes"/>
      <point x="76" y="383"/>
      <point x="109" y="341"/>
      <point x="206" y="330" type="curve" smooth="yes"/>
      <point x="402" y="310" type="line" smooth="yes"/>
      <point x="483" y="300"/>
      <point x="492" y="287"/>
      <point x="492" y="190" type="curve" smooth="yes"/>
      <point x="492" y="73"/>
      <point x="459" y="45"/>
      <point x="320" y="45" type="curve" smooth="yes"/>
      <point x="248" y="45"/>
      <point x="154" y="52"/>
      <point x="82" y="62" type="curve"/>
      <point x="82" y="11" type="line"/>
      <point x="169" y="-1"/>
      <point x="261" y="-8"/>
    </contour>
  </outline>
</glyph>
<glyph name="T" format="2">
  <advance width="522"/>
  <unicode hex="0054"/>
  <anchor x="249" y="0" name="bottom"/>
  <anchor x="249" y="344" name="center"/>
  <anchor x="249" y="688" name="top"/>
  <outline>
    <contour>
      <point x="220" y="0" type="line"/>
      <point x="278" y="0" type="line"/>
      <point x="278" y="660" type="line"/>
      <point x="253" y="634" type="line"/>
      <point x="486" y="634" type="line"/>
      <point x="486" y="688" type="line"/>
      <point x="11" y="688" type="line"/>
      <point x="11" y="634" type="line"/>
      <point x="244" y="634" type="line"/>
      <point x="220" y="660" type="line"/>
    </contour>
  </outline>
</glyph>
<glyph name="U" format="2">
  <advance width="704"/>
  <unicode hex="0055"/>
  <anchor x="353" y="0" name="bottom"/>
  <anchor x="626" y="10" name="ogonek"/>
  <anchor x="353" y="688" name="top"/>
  <anchor x="675" y="688" name="topright"/>
  <outline>
    <contour>
      <point x="349" y="-8" type="curve" smooth="yes"/>
      <point x="556" y="-8"/>
      <point x="603" y="55"/>
      <point x="603" y="326" type="curve" smooth="yes"/>
      <point x="603" y="688" type="line"/>
      <point x="545" y="688" type="line"/>
      <point x="545" y="305" type="line" smooth="yes"/>
      <point x="545" y="88"/>
      <point x="517" y="46"/>
      <point x="353" y="46" type="curve" smooth="yes"/>
      <point x="187" y="46"/>
      <point x="161" y="82"/>
      <point x="161" y="297" type="curve" smooth="yes"/>
      <point x="161" y="688" type="line"/>
      <point x="103" y="688" type="line"/>
      <point x="103" y="318" type="line" smooth="yes"/>
      <point x="103" y="54"/>
      <point x="148" y="-8"/>
    </contour>
  </outline>
</glyph>
<glyph name="V" format="2">
  <advance width="578"/>
  <unicode hex="0056"/>
  <outline>
    <contour>
      <point x="243" y="0" type="line"/>
      <point x="327" y="0" type="line"/>
      <point x="555" y="688" type="line"/>
      <point x="494" y="688" type="line"/>
      <point x="285" y="52" type="line"/>
      <point x="72" y="688" type="line"/>
      <point x="11" y="688" type="line"/>
    </contour>
  </outline>
</glyph>
<glyph name="W" format="2">
  <advance width="732"/>
  <unicode hex="0057"/>
  <outline>
    <contour>
      <point x="149" y="0" type="line"/>
      <point x="234" y="0" type="line"/>
      <point x="360" y="612" type="line"/>
      <point x="486" y="0" type="line"/>
      <point x="571" y="0" type="line"/>
      <point x="709" y="688" type="line"/>
      <point x="651" y="688" type="line"/>
      <point x="529" y="75" type="line"/>
      <point x="401" y="688" type="line"/>
      <point x="319" y="688" type="line"/>
      <point x="191" y="74" type="line"/>
      <point x="69" y="688" type="line"/>
      <point x="11" y="688" type="line"/>
    </contour>
  </outline>
</glyph>
<glyph name="X" format="2">
  <advance width="594"/>
  <unicode hex="0058"/>
  <anchor x="355" y="0" name="bottom"/>
  <anchor x="355" y="510" name="top"/>
  <outline>
    <contour>
      <point x="497" y="0" type="line"/>
      <point x="568" y="0" type="line"/>
      <point x="104" y="688" type="line"/>
      <point x="33" y="688" type="line"/>
    </contour>
    <contour>
      <point x="22" y="0" type="line"/>
      <point x="93" y="0" type="line"/>
      <point x="557" y="688" type="line"/>
      <point x="486" y="688" type="line"/>
    </contour>
  </outline>
</glyph>
<glyph name="Y" format="2">
  <advance width="556"/>
  <unicode hex="0059"/>
  <anchor x="279" y="0" name="bottom"/>
  <anchor x="279" y="688" name="top"/>
  <anchor x="167" y="688" name="topleft"/>
  <outline>
    <contour>
      <point x="244" y="0" type="line"/>
      <point x="302" y="0" type="line"/>
      <point x="302" y="316" type="line"/>
      <point x="288" y="264" type="line"/>
      <point x="534" y="688" type="line"/>
      <point x="467" y="688" type="line"/>
      <point x="273" y="349" type="line"/>
      <point x="79" y="688" type="line"/>
      <point x="11" y="688" type="line"/>
      <point x="257" y="264" type="line"/>
      <point x="244" y="316" type="line"/>
    </contour>
  </outline>
</glyph>
<glyph name="Z" format="2">
  <advance width="593"/>
  <unicode hex="005A"/>
  <anchor x="179" y="0" name="bottom"/>
  <anchor x="179" y="344" name="center"/>
  <anchor x="179" y="688" name="top"/>
  <outline>
    <contour>
      <point x="54" y="0" type="line"/>
      <point x="536" y="0" type="line"/>
      <point x="536" y="53" type="line"/>
      <point x="126" y="53" type="line"/>
      <point x="529" y="641" type="line"/>
      <point x="529" y="688" type="line"/>
      <point x="67" y="688" type="line"/>
      <point x="67" y="635" type="line"/>
      <point x="457" y="635" type="line"/>
      <point x="54" y="47" type="line"/>
    </contour>
  </outline>
</glyph>
<glyph name="a" format="2">
  <advance width="586"/>
  <unicode hex="0061"/>
  <anchor x="320" y="0" name="bottom"/>
  <anchor x="554" y="10" name="ogonek"/>
  <anchor x="320" y="510" name="top"/>
  <outline>
    <contour>
      <point x="243" y="-8" type="curve" smooth="yes"/>
      <point x="340" y="-8"/>
      <point x="395" y="19"/>
      <point x="420" y="79" type="curve"/>
      <point x="424" y="79" type="line"/>
      <point x="432" y="0" type="line"/>
      <point x="480" y="0" type="line"/>
      <point x="480" y="278" type="line" smooth="yes"/>
      <point x="480" y="482"/>
      <point x="451" y="518"/>
      <point x="279" y="518" type="curve" smooth="yes"/>
      <point x="224" y="518"/>
      <point x="167" y="513"/>
      <point x="96" y="503" type="curve"/>
      <point x="96" y="454" type="line"/>
      <point x="155" y="464"/>
      <point x="213" y="468"/>
      <point x="283" y="468" type="curve" smooth="yes"/>
      <point x="410" y="468"/>
      <point x="422" y="451"/>
      <point x="422" y="282" type="curve" smooth="yes"/>
      <point x="422" y="240" type="line" smooth="yes"/>
      <point x="422" y="81"/>
      <point x="389" y="42"/>
      <point x="255" y="42" type="curve" smooth="yes"/>
      <point x="150" y="42"/>
      <point x="128" y="61"/>
      <point x="128" y="151" type="curve" smooth="yes"/>
      <point x="128" y="225"/>
      <point x="154" y="245"/>
      <point x="254" y="245" type="curve" smooth="yes"/>
      <point x="434" y="245" type="line"/>
      <point x="434" y="295" type="line"/>
      <point x="245" y="295" type="line" smooth="yes"/>
      <point x="114" y="295"/>
      <point x="70" y="258"/>
      <point x="70" y="146" type="curve" smooth="yes"/>
      <point x="70" y="32"/>
      <point x="115" y="-8"/>
    </contour>
  </outline>
</glyph>
<glyph name="b" format="2">
  <advance width="619"/>
  <unicode hex="0062"/>
  <anchor x="148" y="0" name="bottom"/>
  <anchor x="-7" y="594" name="center"/>
  <anchor x="148" y="510" name="top"/>
  <outline>
    <contour>
      <point x="360" y="-8" type="curve" smooth="yes"/>
      <point x="517" y="-8"/>
      <point x="545" y="31"/>
      <point x="545" y="251" type="curve" smooth="yes"/>
      <point x="545" y="259" type="line" smooth="yes"/>
      <point x="545" y="479"/>
      <point x="517" y="518"/>
      <point x="360" y="518" type="curve" smooth="yes"/>
      <point x="258" y="518"/>
      <point x="201" y="489"/>
      <point x="174" y="423" type="curve"/>
      <point x="170" y="423" type="line"/>
      <point x="170" y="743" type="line"/>
      <point x="112" y="743" type="line"/>
      <point x="112" y="0" type="line"/>
      <point x="161" y="0" type="line"/>
      <point x="170" y="87" type="line"/>
      <point x="174" y="87" type="line"/>
      <point x="201" y="21"/>
      <point x="258" y="-8"/>
    </contour>
    <contour>
      <point x="346" y="42" type="curve" smooth="yes"/>
      <point x="208" y="42"/>
      <point x="170" y="88"/>
      <point x="170" y="244" type="curve" smooth="yes"/>
      <point x="170" y="266" type="line" smooth="yes"/>
      <point x="170" y="422"/>
      <point x="208" y="468"/>
      <point x="346" y="468" type="curve" smooth="yes"/>
      <point x="464" y="468"/>
      <point x="487" y="441"/>
      <point x="487" y="312" type="curve" smooth="yes"/>
      <point x="487" y="198" type="line" smooth="yes"/>
      <point x="487" y="69"/>
      <point x="464" y="42"/>
    </contour>
  </outline>
</glyph>
<glyph name="c" format="2">
  <advance width="472"/>
  <unicode hex="0063"/>
  <anchor x="241" y="0" name="bottom"/>
  <anchor x="241" y="510" name="top"/>
  <outline>
    <contour>
      <point x="275" y="-8" type="curve" smooth="yes"/>
      <point x="327" y="-8"/>
      <point x="385" y="-2"/>
      <point x="420" y="7" type="curve"/>
      <point x="420" y="57" type="line"/>
      <point x="383" y="48"/>
      <point x="321" y="42"/>
      <point x="271" y="42" type="curve" smooth="yes"/>
      <point x="147" y="42"/>
      <point x="136" y="58"/>
      <point x="136" y="231" type="curve" smooth="yes"/>
      <point x="136" y="279" type="line" smooth="yes"/>
      <point x="136" y="452"/>
      <point x="147" y="468"/>
      <point x="271" y="468" type="curve" smooth="yes"/>
      <point x="319" y="468"/>
      <point x="379" y="462"/>
      <point x="415" y="453" type="curve"/>
      <point x="415" y="503" type="line"/>
      <point x="381" y="512"/>
      <point x="325" y="518"/>
      <point x="275" y="518" type="curve" smooth="yes"/>
      <point x="107" y="518"/>
      <point x="78" y="479"/>
      <point x="78" y="259" type="curve" smooth="yes"/>
      <point x="78" y="251" type="line" smooth="yes"/>
      <point x="78" y="31"/>
      <point x="107" y="-8"/>
    </contour>
  </outline>
</glyph>
<glyph name="d" format="2">
  <advance width="619"/>
  <unicode hex="0064"/>
  <anchor x="310" y="0" name="bottom"/>
  <anchor x="464" y="594" name="center"/>
  <anchor x="310" y="510" name="top"/>
  <anchor x="519" y="743" name="topright"/>
  <outline>
    <contour>
      <point x="259" y="-8" type="curve" smooth="yes"/>
      <point x="361" y="-8"/>
      <point x="418" y="21"/>
      <point x="445" y="87" type="curve"/>
      <point x="449" y="87" type="line"/>
      <point x="458" y="0" type="line"/>
      <point x="507" y="0" type="line"/>
      <point x="507" y="743" type="line"/>
      <point x="449" y="743" type="line"/>
      <point x="449" y="423" type="line"/>
      <point x="445" y="423" type="line"/>
      <point x="418" y="489"/>
      <point x="361" y="518"/>
      <point x="259" y="518" type="curve" smooth="yes"/>
      <point x="102" y="518"/>
      <point x="74" y="479"/>
      <point x="74" y="259" type="curve" smooth="yes"/>
      <point x="74" y="251" type="line" smooth="yes"/>
      <point x="74" y="31"/>
      <point x="102" y="-8"/>
    </contour>
    <contour>
      <point x="273" y="42" type="curve" smooth="yes"/>
      <point x="155" y="42"/>
      <point x="132" y="69"/>
      <point x="132" y="198" type="curve" smooth="yes"/>
      <point x="132" y="312" type="line" smooth="yes"/>
      <point x="132" y="441"/>
      <point x="155" y="468"/>
      <point x="273" y="468" type="curve" smooth="yes"/>
      <point x="411" y="468"/>
      <point x="449" y="422"/>
      <point x="449" y="266" type="curve" smooth="yes"/>
      <point x="449" y="244" type="line" smooth="yes"/>
      <point x="449" y="88"/>
      <point x="411" y="42"/>
    </contour>
  </outline>
</glyph>
<glyph name="e" format="2">
  <advance width="566"/>
  <unicode hex="0065"/>
  <anchor x="283" y="0" name="bottom"/>
  <anchor x="526" y="10" name="ogonek"/>
  <anchor x="283" y="510" name="top"/>
  <outline>
    <contour>
      <point x="289" y="-8" type="curve" smooth="yes"/>
      <point x="357" y="-8"/>
      <point x="437" y="0"/>
      <point x="481" y="12" type="curve"/>
      <point x="481" y="60" type="line"/>
      <point x="428" y="48"/>
      <point x="350" y="42"/>
      <point x="289" y="42" type="curve" smooth="yes"/>
      <point x="148" y="42"/>
      <point x="136" y="61"/>
      <point x="136" y="237" type="curve" smooth="yes"/>
      <point x="136" y="270" type="line" smooth="yes"/>
      <point x="136" y="450"/>
      <point x="148" y="468"/>
      <point x="289" y="468" type="curve" smooth="yes"/>
      <point x="422" y="468"/>
      <point x="437" y="449"/>
      <point x="437" y="278" type="curve" smooth="yes"/>
      <point x="437" y="250" type="line"/>
      <point x="464" y="277" type="line"/>
      <point x="107" y="277" type="line"/>
      <point x="107" y="227" type="line"/>
      <point x="495" y="227" type="line"/>
      <point x="495" y="259" type="line" smooth="yes"/>
      <point x="495" y="479"/>
      <point x="464" y="518"/>
      <point x="289" y="518" type="curve" smooth="yes"/>
      <point x="110" y="518"/>
      <point x="78" y="479"/>
      <point x="78" y="259" type="curve" smooth="yes"/>
      <point x="78" y="251" type="line" smooth="yes"/>
      <point x="78" y="31"/>
      <point x="110" y="-8"/>
    </contour>
  </outline>
</glyph>
<glyph name="f" format="2">
  <advance width="342"/>
  <unicode hex="0066"/>
  <anchor x="166" y="0" name="bottom"/>
  <anchor x="166" y="743" name="top"/>
  <outline>
    <contour>
      <point x="121" y="0" type="line"/>
      <point x="179" y="0" type="line"/>
      <point x="179" y="598" type="line" smooth="yes"/>
      <point x="179" y="678"/>
      <point x="200" y="693"/>
      <point x="307" y="693" type="curve"/>
      <point x="307" y="743" type="line"/>
      <point x="162" y="743"/>
      <point x="121" y="710"/>
      <point x="121" y="591" type="curve" smooth="yes"/>
    </contour>
    <contour>
      <point x="22" y="460" type="line"/>
      <point x="133" y="460" type="line"/>
      <point x="133" y="510" type="line"/>
      <point x="22" y="510" type="line"/>
    </contour>
    <contour>
      <point x="167" y="460" type="line"/>
      <point x="307" y="460" type="line"/>
      <point x="307" y="510" type="line"/>
      <point x="167" y="510" type="line"/>
    </contour>
  </outline>
</glyph>
<glyph name="g" format="2">
  <advance width="619"/>
  <unicode hex="0067"/>
  <anchor x="281" y="-200" name="bottom"/>
  <anchor x="631" y="-84" name="center"/>
  <anchor x="281" y="510" name="top"/>
  <outline>
    <contour>
      <point x="311" y="-208" type="curve" smooth="yes"/>
      <point x="482" y="-208"/>
      <point x="511" y="-172"/>
      <point x="511" y="32" type="curve" smooth="yes"/>
      <point x="511" y="510" type="line"/>
      <point x="462" y="510" type="line"/>
      <point x="453" y="423" type="line"/>
      <point x="449" y="423" type="line"/>
      <point x="422" y="489"/>
      <point x="365" y="518"/>
      <point x="263" y="518" type="curve" smooth="yes"/>
      <point x="106" y="518"/>
      <point x="78" y="479"/>
      <point x="78" y="259" type="curve" smooth="yes"/>
      <point x="78" y="251" type="line" smooth="yes"/>
      <point x="78" y="31"/>
      <point x="106" y="-8"/>
      <point x="263" y="-8" type="curve" smooth="yes"/>
      <point x="365" y="-8"/>
      <point x="422" y="21"/>
      <point x="449" y="87" type="curve"/>
      <point x="453" y="87" type="line"/>
      <point x="453" y="28" type="line" smooth="yes"/>
      <point x="453" y="-141"/>
      <point x="442" y="-158"/>
      <point x="314" y="-158" type="curve" smooth="yes"/>
      <point x="244" y="-158"/>
      <point x="186" y="-154"/>
      <point x="127" y="-144" type="curve"/>
      <point x="127" y="-193" type="line"/>
      <point x="198" y="-203"/>
      <point x="256" y="-208"/>
    </contour>
    <contour>
      <point x="277" y="42" type="curve" smooth="yes"/>
      <point x="160" y="42"/>
      <point x="136" y="69"/>
      <point x="136" y="198" type="curve" smooth="yes"/>
      <point x="136" y="312" type="line" smooth="yes"/>
      <point x="136" y="441"/>
      <point x="159" y="468"/>
      <point x="277" y="468" type="curve" smooth="yes"/>
      <point x="415" y="468"/>
      <point x="453" y="422"/>
      <point x="453" y="266" type="curve" smooth="yes"/>
      <point x="453" y="244" type="line" smooth="yes"/>
      <point x="453" y="87"/>
      <point x="415" y="42"/>
    </contour>
  </outline>
</glyph>
<glyph name="h" format="2">
  <advance width="623"/>
  <unicode hex="0068"/>
  <anchor x="312" y="0" name="bottom"/>
  <anchor x="312" y="510" name="top"/>
  <outline>
    <contour>
      <point x="108" y="0" type="line"/>
      <point x="166" y="0" type="line"/>
      <point x="166" y="283" type="line" smooth="yes"/>
      <point x="166" y="432"/>
      <point x="199" y="468"/>
      <point x="333" y="468" type="curve" smooth="yes"/>
      <point x="440" y="468"/>
      <point x="462" y="443"/>
      <point x="462" y="314" type="curve" smooth="yes"/>
      <point x="462" y="0" type="line"/>
      <point x="520" y="0" type="line"/>
      <point x="520" y="322" type="line" smooth="yes"/>
      <point x="520" y="466"/>
      <point x="474" y="518"/>
      <point x="346" y="518" type="curve" smooth="yes"/>
      <point x="247" y="518"/>
      <point x="191" y="490"/>
      <point x="166" y="431" type="curve"/>
      <point x="166" y="743" type="line"/>
      <point x="108" y="743" type="line"/>
    </contour>
  </outline>
</glyph>
<glyph name="i" format="2">
  <advance width="282"/>
  <unicode hex="0069"/>
  <anchor x="126" y="0" name="bottom"/>
  <anchor x="170" y="0" name="ogonek"/>
  <anchor x="141" y="696" name="top"/>
  <outline>
    <contour>
      <point x="112" y="0" type="line"/>
      <point x="170" y="0" type="line"/>
      <point x="170" y="510" type="line"/>
      <point x="112" y="510" type="line"/>
    </contour>
    <contour>
      <point x="107" y="628" type="line"/>
      <point x="175" y="628" type="line"/>
      <point x="175" y="696" type="line"/>
      <point x="107" y="696" type="line"/>
    </contour>
  </outline>
</glyph>
<glyph name="j" format="2">
  <advance width="282"/>
  <unicode hex="006A"/>
  <anchor x="129.333" y="-200" name="bottom"/>
  <anchor x="129" y="696" name="top"/>
  <outline>
    <contour>
      <point x="158.667" y="510" type="line"/>
      <point x="100" y="510" type="line"/>
      <point x="100" y="-55" type="line" smooth="yes"/>
      <point x="100" y="-134.667"/>
      <point x="79.4" y="-150"/>
      <point x="-27.667" y="-150" type="curve"/>
      <point x="-27.667" y="-200" type="line"/>
      <point x="118.067" y="-200"/>
      <point x="158.667" y="-167"/>
      <point x="158.667" y="-48" type="curve" smooth="yes"/>
    </contour>
    <contour>
      <point x="95" y="628" type="line"/>
      <point x="163" y="628" type="line"/>
      <point x="163" y="696" type="line"/>
      <point x="95" y="696" type="line"/>
    </contour>
  </outline>
</glyph>
<glyph name="k" format="2">
  <advance width="563"/>
  <unicode hex="006B"/>
  <anchor x="281" y="0" name="bottom"/>
  <anchor x="281" y="510" name="top"/>
  <outline>
    <contour>
      <point x="170" y="235" type="line"/>
      <point x="325" y="235" type="line"/>
      <point x="479" y="0" type="line"/>
      <point x="548" y="0" type="line"/>
      <point x="376" y="260" type="line"/>
      <point x="537" y="510" type="line"/>
      <point x="469" y="510" type="line"/>
      <point x="324" y="285" type="line"/>
      <point x="170" y="285" type="line"/>
    </contour>
    <contour>
      <point x="112" y="0" type="line"/>
      <point x="170" y="0" type="line"/>
      <point x="170" y="743" type="line"/>
      <point x="112" y="743" type="line"/>
    </contour>
  </outline>
</glyph>
<glyph name="l" format="2">
  <advance width="282"/>
  <unicode hex="006C"/>
  <anchor x="133" y="0" name="bottom"/>
  <anchor x="133" y="372" name="center"/>
  <anchor x="133" y="743" name="top"/>
  <anchor x="162" y="743" name="topright"/>
  <outline>
    <contour>
      <point x="108" y="0" type="line"/>
      <point x="166" y="0" type="line"/>
      <point x="166" y="743" type="line"/>
      <point x="108" y="743" type="line"/>
    </contour>
  </outline>
</glyph>
<glyph name="m" format="2">
  <advance width="969"/>
  <unicode hex="006D"/>
  <anchor x="358" y="-2" name="bottom"/>
  <anchor x="312" y="510" name="top"/>
  <outline>
    <contour>
      <point x="108" y="0" type="line"/>
      <point x="166" y="0" type="line"/>
      <point x="166" y="270" type="line" smooth="yes"/>
      <point x="166" y="423"/>
      <point x="204" y="468"/>
      <point x="336" y="468" type="curve" smooth="yes"/>
      <point x="443" y="468"/>
      <point x="462" y="444"/>
      <point x="462" y="316" type="curve" smooth="yes"/>
      <point x="462" y="0" type="line"/>
      <point x="520" y="0" type="line"/>
      <point x="520" y="278" type="line" smooth="yes"/>
      <point x="520" y="424"/>
      <point x="558" y="468"/>
      <point x="690" y="468" type="curve" smooth="yes"/>
      <point x="797" y="468"/>
      <point x="816" y="444"/>
      <point x="816" y="316" type="curve" smooth="yes"/>
      <point x="816" y="0" type="line"/>
      <point x="874" y="0" type="line"/>
      <point x="874" y="325" type="line" smooth="yes"/>
      <point x="874" y="474"/>
      <point x="835" y="518"/>
      <point x="706" y="518" type="curve" smooth="yes"/>
      <point x="601" y="518"/>
      <point x="544" y="491"/>
      <point x="514" y="432" type="curve"/>
      <point x="510" y="432" type="line"/>
      <point x="491" y="496"/>
      <point x="445" y="518"/>
      <point x="352" y="518" type="curve" smooth="yes"/>
      <point x="252" y="518"/>
      <point x="196" y="492"/>
      <point x="170" y="432" type="curve"/>
      <point x="166" y="432" type="line"/>
      <point x="157" y="510" type="line"/>
      <point x="108" y="510" type="line"/>
    </contour>
  </outline>
</glyph>
<glyph name="n" format="2">
  <advance width="623"/>
  <unicode hex="006E"/>
  <anchor x="312" y="0" name="bottom"/>
  <anchor x="312" y="510" name="top"/>
  <outline>
    <contour>
      <point x="108" y="0" type="line"/>
      <point x="166" y="0" type="line"/>
      <point x="166" y="283" type="line" smooth="yes"/>
      <point x="166" y="432"/>
      <point x="199" y="468"/>
      <point x="333" y="468" type="curve" smooth="yes"/>
      <point x="440" y="468"/>
      <point x="462" y="443"/>
      <point x="462" y="314" type="curve" smooth="yes"/>
      <point x="462" y="0" type="line"/>
      <point x="520" y="0" type="line"/>
      <point x="520" y="322" type="line" smooth="yes"/>
      <point x="520" y="466"/>
      <point x="474" y="518"/>
      <point x="346" y="518" type="curve" smooth="yes"/>
      <point x="248" y="518"/>
      <point x="193" y="490"/>
      <point x="168" y="431" type="curve"/>
      <point x="164" y="431" type="line"/>
      <point x="156" y="510" type="line"/>
      <point x="108" y="510" type="line"/>
    </contour>
  </outline>
</glyph>
<glyph name="p" format="2">
  <advance width="619"/>
  <unicode hex="0070"/>
  <anchor x="312" y="0" name="bottom"/>
  <anchor x="-11" y="-84" name="center"/>
  <anchor x="312" y="510" name="top"/>
  <outline>
    <contour>
      <point x="108" y="-233" type="line"/>
      <point x="166" y="-233" type="line"/>
      <point x="166" y="87" type="line"/>
      <point x="170" y="87" type="line"/>
      <point x="197" y="21"/>
      <point x="254" y="-8"/>
      <point x="356" y="-8" type="curve" smooth="yes"/>
      <point x="514" y="-8"/>
      <point x="541" y="31"/>
      <point x="541" y="251" type="curve" smooth="yes"/>
      <point x="541" y="259" type="line" smooth="yes"/>
      <point x="541" y="479"/>
      <point x="514" y="518"/>
      <point x="356" y="518" type="curve" smooth="yes"/>
      <point x="254" y="518"/>
      <point x="197" y="489"/>
      <point x="170" y="423" type="curve"/>
      <point x="166" y="423" type="line"/>
      <point x="157" y="510" type="line"/>
      <point x="108" y="510" type="line"/>
    </contour>
    <contour>
      <point x="342" y="42" type="curve" smooth="yes"/>
      <point x="204" y="42"/>
      <point x="166" y="88"/>
      <point x="166" y="244" type="curve" smooth="yes"/>
      <point x="166" y="266" type="line" smooth="yes"/>
      <point x="166" y="422"/>
      <point x="204" y="468"/>
      <point x="342" y="468" type="curve" smooth="yes"/>
      <point x="460" y="468"/>
      <point x="483" y="441"/>
      <point x="483" y="312" type="curve" smooth="yes"/>
      <point x="483" y="198" type="line" smooth="yes"/>
      <point x="483" y="69"/>
      <point x="460" y="42"/>
    </contour>
  </outline>
</glyph>
<glyph name="q" format="2">
  <advance width="619"/>
  <unicode hex="0071"/>
  <anchor x="310" y="0" name="bottom"/>
  <anchor x="623" y="-84" name="center"/>
  <anchor x="310" y="510" name="top"/>
  <outline>
    <contour>
      <point x="445" y="-233" type="line"/>
      <point x="503" y="-233" type="line"/>
      <point x="503" y="510" type="line"/>
      <point x="454" y="510" type="line"/>
      <point x="445" y="423" type="line"/>
      <point x="441" y="423" type="line"/>
      <point x="414" y="489"/>
      <point x="357" y="518"/>
      <point x="255" y="518" type="curve" smooth="yes"/>
      <point x="98" y="518"/>
      <point x="70" y="479"/>
      <point x="70" y="259" type="curve" smooth="yes"/>
      <point x="70" y="251" type="line" smooth="yes"/>
      <point x="70" y="31"/>
      <point x="98" y="-8"/>
      <point x="255" y="-8" type="curve" smooth="yes"/>
      <point x="357" y="-8"/>
      <point x="414" y="21"/>
      <point x="441" y="87" type="curve"/>
      <point x="445" y="87" type="line"/>
    </contour>
    <contour>
      <point x="269" y="42" type="curve" smooth="yes"/>
      <point x="152" y="42"/>
      <point x="128" y="69"/>
      <point x="128" y="198" type="curve" smooth="yes"/>
      <point x="128" y="312" type="line" smooth="yes"/>
      <point x="128" y="441"/>
      <point x="152" y="468"/>
      <point x="269" y="468" type="curve" smooth="yes"/>
      <point x="407" y="468"/>
      <point x="445" y="422"/>
      <point x="445" y="266" type="curve" smooth="yes"/>
      <point x="445" y="244" type="line" smooth="yes"/>
      <point x="445" y="88"/>
      <point x="407" y="42"/>
    </contour>
  </outline>
</glyph>
<glyph name="r" format="2">
  <advance width="399"/>
  <unicode hex="0072"/>
  <anchor x="206" y="0" name="bottom"/>
  <anchor x="206" y="510" name="top"/>
  <outline>
    <contour>
      <point x="108" y="0" type="line"/>
      <point x="166" y="0" type="line"/>
      <point x="166" y="270" type="line" smooth="yes"/>
      <point x="166" y="423"/>
      <point x="208" y="468"/>
      <point x="349" y="468" type="curve" smooth="yes"/>
      <point x="371" y="468" type="line"/>
      <point x="371" y="518" type="line"/>
      <point x="260" y="518"/>
      <point x="199" y="492"/>
      <point x="170" y="432" type="curve"/>
      <point x="166" y="432" type="line"/>
      <point x="157" y="510" type="line"/>
      <point x="108" y="510" type="line"/>
    </contour>
  </outline>
</glyph>
<glyph name="s" format="2">
  <advance width="501"/>
  <unicode hex="0073"/>
  <anchor x="252" y="0" name="bottom"/>
  <anchor x="252" y="510" name="top"/>
  <outline>
    <contour>
      <point x="244" y="-8" type="curve" smooth="yes"/>
      <point x="385" y="-8"/>
      <point x="432" y="30"/>
      <point x="432" y="143" type="curve" smooth="yes"/>
      <point x="432" y="233"/>
      <point x="404" y="266"/>
      <point x="322" y="276" type="curve" smooth="yes"/>
      <point x="199" y="288" type="line" smooth="yes"/>
      <point x="140" y="295"/>
      <point x="129" y="308"/>
      <point x="129" y="370" type="curve" smooth="yes"/>
      <point x="129" y="449"/>
      <point x="154" y="468"/>
      <point x="262" y="468" type="curve" smooth="yes"/>
      <point x="310" y="468"/>
      <point x="370" y="463"/>
      <point x="411" y="455" type="curve"/>
      <point x="411" y="504" type="line"/>
      <point x="357" y="513"/>
      <point x="298" y="518"/>
      <point x="256" y="518" type="curve" smooth="yes"/>
      <point x="119" y="518"/>
      <point x="71" y="480"/>
      <point x="71" y="370" type="curve" smooth="yes"/>
      <point x="71" y="282"/>
      <point x="99" y="247"/>
      <point x="177" y="239" type="curve" smooth="yes"/>
      <point x="301" y="226" type="line" smooth="yes"/>
      <point x="363" y="219"/>
      <point x="374" y="207"/>
      <point x="374" y="143" type="curve" smooth="yes"/>
      <point x="374" y="61"/>
      <point x="348" y="42"/>
      <point x="240" y="42" type="curve" smooth="yes"/>
      <point x="187" y="42"/>
      <point x="120" y="47"/>
      <point x="75" y="55" type="curve"/>
      <point x="75" y="6" type="line"/>
      <point x="133" y="-3"/>
      <point x="198" y="-8"/>
    </contour>
  </outline>
</glyph>
<glyph name="t" format="2">
  <advance width="342"/>
  <unicode hex="0074"/>
  <anchor x="166" y="0" name="bottom"/>
  <anchor x="166" y="743" name="top"/>
  <outline>
    <contour>
      <point x="121" y="0" type="line"/>
      <point x="179" y="0" type="line"/>
      <point x="179" y="688" type="line"/>
      <point x="121" y="688" type="line"/>
    </contour>
    <contour>
      <point x="22" y="460" type="line"/>
      <point x="133" y="460" type="line"/>
      <point x="133" y="510" type="line"/>
      <point x="22" y="510" type="line"/>
    </contour>
    <contour>
      <point x="167" y="460" type="line"/>
      <point x="307" y="460" type="line"/>
      <point x="307" y="510" type="line"/>
      <point x="167" y="510" type="line"/>
    </contour>
  </outline>
</glyph>
<glyph name="u" format="2">
  <advance width="623"/>
  <unicode hex="0075"/>
  <anchor x="304" y="0" name="bottom"/>
  <anchor x="546" y="10" name="ogonek"/>
  <anchor x="304" y="510" name="top"/>
  <anchor x="587" y="510" name="topright"/>
  <outline>
    <contour>
      <point x="507" y="510" type="line"/>
      <point x="449" y="510" type="line"/>
      <point x="449" y="227" type="line" smooth="yes"/>
      <point x="449" y="78"/>
      <point x="416" y="42"/>
      <point x="282" y="42" type="curve" smooth="yes"/>
      <point x="175" y="42"/>
      <point x="153" y="67"/>
      <point x="153" y="196" type="curve" smooth="yes"/>
      <point x="153" y="510" type="line"/>
      <point x="95" y="510" type="line"/>
      <point x="95" y="188" type="line" smooth="yes"/>
      <point x="95" y="44"/>
      <point x="141" y="-8"/>
      <point x="269" y="-8" type="curve" smooth="yes"/>
      <point x="367" y="-8"/>
      <point x="422" y="19"/>
      <point x="447" y="79" type="curve"/>
      <point x="451" y="79" type="line"/>
      <point x="459" y="0" type="line"/>
      <point x="507" y="0" type="line"/>
    </contour>
  </outline>
</glyph>
<glyph name="v" format="2">
  <advance width="528"/>
  <unicode hex="0076"/>
  <anchor x="210" y="0" name="bottom"/>
  <anchor x="210" y="510" name="top"/>
  <outline>
    <contour>
      <point x="233" y="0" type="line"/>
      <point x="296" y="0" type="line"/>
      <point x="503" y="510" type="line"/>
      <point x="441" y="510" type="line"/>
      <point x="267" y="63" type="line"/>
      <point x="263" y="63" type="line"/>
      <point x="89" y="510" type="line"/>
      <point x="27" y="510" type="line"/>
    </contour>
  </outline>
</glyph>
<glyph name="w" format="2">
  <advance width="678"/>
  <unicode hex="0077"/>
  <anchor x="58" y="0" name="bottom"/>
  <anchor x="58" y="510" name="top"/>
  <outline>
    <contour>
      <point x="136" y="0" type="line"/>
      <point x="223" y="0" type="line"/>
      <point x="327" y="428" type="line"/>
      <point x="431" y="0" type="line"/>
      <point x="517" y="0" type="line"/>
      <point x="626" y="510" type="line"/>
      <point x="567" y="510" type="line"/>
      <point x="476" y="65" type="line"/>
      <point x="471" y="65" type="line"/>
      <point x="361" y="510" type="line"/>
      <point x="292" y="510" type="line"/>
      <point x="182" y="65" type="line"/>
      <point x="178" y="65" type="line"/>
      <point x="86" y="510" type="line"/>
      <point x="27" y="510" type="line"/>
    </contour>
  </outline>
</glyph>
<glyph name="x" format="2">
  <advance width="502"/>
  <unicode hex="0078"/>
  <anchor x="322" y="0" name="bottom"/>
  <anchor x="322" y="510" name="top"/>
  <outline>
    <contour>
      <point x="396" y="0" type="line"/>
      <point x="468" y="0" type="line"/>
      <point x="93" y="510" type="line"/>
      <point x="22" y="510" type="line"/>
    </contour>
    <contour>
      <point x="22" y="0" type="line"/>
      <point x="93" y="0" type="line"/>
      <point x="468" y="510" type="line"/>
      <point x="396" y="510" type="line"/>
    </contour>
  </outline>
</glyph>
<glyph name="y" format="2">
  <advance width="623"/>
  <unicode hex="0079"/>
  <anchor x="304" y="0" name="bottom"/>
  <anchor x="304" y="510" name="top"/>
  <outline>
    <contour>
      <point x="307" y="-208" type="curve" smooth="yes"/>
      <point x="482" y="-208"/>
      <point x="507" y="-168"/>
      <point x="507" y="55" type="curve" smooth="yes"/>
      <point x="507" y="510" type="line"/>
      <point x="449" y="510" type="line"/>
      <point x="449" y="244" type="line" smooth="yes"/>
      <point x="449" y="87"/>
      <point x="419" y="42"/>
      <point x="285" y="42" type="curve" smooth="yes"/>
      <point x="164" y="42"/>
      <point x="153" y="66"/>
      <point x="153" y="198" type="curve" smooth="yes"/>
      <point x="153" y="510" type="line"/>
      <point x="95" y="510" type="line"/>
      <point x="95" y="251" type="line" smooth="yes"/>
      <point x="95" y="31"/>
      <point x="118" y="-8"/>
      <point x="270" y="-8" type="curve" smooth="yes"/>
      <point x="368" y="-8"/>
      <point x="419" y="21"/>
      <point x="445" y="87" type="curve"/>
      <point x="449" y="87" type="line"/>
      <point x="449" y="41" type="line" smooth="yes"/>
      <point x="449" y="-139"/>
      <point x="439" y="-158"/>
      <point x="305" y="-158" type="curve" smooth="yes"/>
      <point x="242" y="-158"/>
      <point x="175" y="-152"/>
      <point x="127" y="-143" type="curve"/>
      <point x="127" y="-191" type="line"/>
      <point x="170" y="-201"/>
      <point x="239" y="-208"/>
    </contour>
  </outline>
</glyph>
<glyph name="z" format="2">
  <advance width="454"/>
  <unicode hex="007A"/>
  <anchor x="233" y="0" name="bottom"/>
  <anchor x="227" y="255" name="center"/>
  <anchor x="233" y="510" name="top"/>
  <outline>
    <contour>
      <point x="27" y="0" type="line"/>
      <point x="400" y="0" type="line"/>
      <point x="400" y="50" type="line"/>
      <point x="109" y="50" type="line"/>
      <point x="109" y="54" type="line"/>
      <point x="398" y="477" type="line"/>
      <point x="398" y="510" type="line"/>
      <point x="39" y="510" type="line"/>
      <point x="39" y="460" type="line"/>
      <point x="315" y="460" type="line"/>
      <point x="315" y="456" type="line"/>
      <point x="27" y="33" type="line"/>
    </contour>
  </outline>
</glyph>
<glyph name="jdotless" format="2">
  <advance width="258.66667"/>
  <unicode hex="0237"/>
  <anchor x="129.333" y="-200" name="bottom"/>
  <anchor x="129.333" y="510" name="top"/>
  <outline>
    <contour>
      <point x="158.667" y="510" type="line"/>
      <point x="100" y="510" type="line"/>
      <point x="100" y="-55" type="line" smooth="yes"/>
      <point x="100" y="-134.667"/>
      <point x="79.4" y="-150"/>
      <point x="-27.667" y="-150" type="curve"/>
      <point x="-27.667" y="-200" type="line"/>
      <point x="118.067" y="-200"/>
      <point x="158.667" y="-167"/>
      <point x="158.667" y="-48" type="curve" smooth="yes"/>
    </contour>
  </outline>
</glyph>
<glyph name="dotaccentcomb" format="2">
  <advance width="128"/>
  <unicode hex="0307"/>
  <anchor x="54" y="510" name="_top"/>
  <anchor x="54" y="696" name="top"/>
  <outline>
    <contour>
      <point x="20" y="628" type="line"/>
      <point x="88" y="628" type="line"/>
      <point x="88" y="696" type="line"/>
      <point x="20" y="696" type="line"/>
    </contour>
  </outline>
</glyph>
<glyph name="C.001" format="2">
  <advance width="609"/>
  <anchor x="290.2" y="0" name="bottom"/>
  <anchor x="290.2" y="688" name="top"/>
  <outline>
    <contour>
      <point x="348" y="-8" type="curve" smooth="yes"/>
      <point x="410" y="-8"/>
      <point x="483" y="-2.6"/>
      <point x="526.8" y="6" type="curve"/>
      <point x="526.8" y="56.333" type="line"/>
      <point x="486.2" y="49.2"/>
      <point x="418" y="44.667"/>
      <point x="348" y="44.667" type="curve" smooth="yes"/>
      <point x="150.933" y="44.667"/>
      <point x="132.8" y="67.533"/>
      <point x="132.8" y="310" type="curve" smooth="yes"/>
      <point x="132.8" y="378" type="line" smooth="yes"/>
      <point x="132.8" y="619.867"/>
      <point x="151.733" y="643.333"/>
      <point x="348" y="643.333" type="curve" smooth="yes"/>
      <point x="414.2" y="643.333"/>
      <point x="476.4" y="639.133"/>
      <point x="522.6" y="631.333" type="curve"/>
      <point x="522.6" y="680.333" type="line"/>
      <point x="479.8" y="689.6"/>
      <point x="407.4" y="696"/>
      <point x="348" y="696" type="curve" smooth="yes"/>
      <point x="116.533" y="696"/>
      <point x="74.8" y="643.8"/>
      <point x="74.8" y="349" type="curve" smooth="yes"/>
      <point x="74.8" y="339" type="line" smooth="yes"/>
      <point x="74.8" y="43.8"/>
      <point x="115.533" y="-8"/>
    </contour>
  </outline>
</glyph>
<glyph name="M.001" format="2">
  <advance width="826"/>
  <anchor x="413.733" y="0" name="bottom"/>
  <anchor x="413.733" y="688" name="top"/>
  <outline>
    <contour>
      <point x="100" y="0" type="line"/>
      <point x="158" y="0" type="line"/>
      <point x="158" y="589.733" type="line"/>
      <point x="162" y="589.733" type="line"/>
      <point x="398.333" y="0" type="line"/>
      <point x="450" y="0" type="line"/>
      <point x="686.133" y="589.733" type="line"/>
      <point x="690.133" y="589.733" type="line"/>
      <point x="690.133" y="0" type="line"/>
      <point x="748.133" y="0" type="line"/>
      <point x="748.133" y="688" type="line"/>
      <point x="664.867" y="688" type="line"/>
      <point x="426.067" y="88" type="line"/>
      <point x="422.067" y="88" type="line"/>
      <point x="183.267" y="688" type="line"/>
      <point x="100" y="688" type="line"/>
    </contour>
  </outline>
</glyph>
<glyph name="X.001" format="2">
  <advance width="674.54348"/>
  <anchor x="337.543" y="0" name="bottom"/>
  <anchor x="337.543" y="688" name="top"/>
  <outline>
    <contour>
      <point x="29.113" y="0" type="line"/>
      <point x="127.414" y="0" type="line"/>
      <point x="331.925" y="276.037" type="line"/>
      <point x="339.925" y="276.037" type="line"/>
      <point x="543.906" y="0" type="line"/>
      <point x="645.358" y="0" type="line"/>
      <point x="389.981" y="347.604" type="line"/>
      <point x="642.358" y="688" type="line"/>
      <point x="543.586" y="688" type="line"/>
      <point x="342.679" y="417.717" type="line"/>
      <point x="335.075" y="417.717" type="line"/>
      <point x="134.698" y="688" type="line"/>
      <point x="33.113" y="688" type="line"/>
      <point x="285.094" y="345.396" type="line"/>
    </contour>
  </outline>
</glyph>
<glyph name="Y.001" format="2">
  <advance width="556"/>
  <anchor x="290.067" y="0" name="bottom"/>
  <anchor x="290.067" y="688" name="top"/>
  <anchor x="178.6" y="688" name="topleft"/>
  <outline>
    <contour>
      <point x="266.933" y="0" type="line"/>
      <point x="324.933" y="0" type="line"/>
      <point x="324.933" y="293.467" type="line"/>
      <point x="315.133" y="248.8" type="line"/>
      <point x="581.2" y="688" type="line"/>
      <point x="513.6" y="688" type="line"/>
      <point x="296.267" y="323.867" type="line"/>
      <point x="292.267" y="323.867" type="line"/>
      <point x="77.933" y="688" type="line"/>
      <point x="10" y="688" type="line"/>
      <point x="276.733" y="248.8" type="line"/>
      <point x="266.933" y="293.467" type="line"/>
    </contour>
  </outline>
</glyph>
<glyph name="Z.001" format="2">
  <advance width="593"/>
  <anchor x="227.8" y="0" name="bottom"/>
  <anchor x="227.8" y="344" name="center"/>
  <anchor x="227.8" y="688" name="top"/>
  <outline>
    <contour>
      <point x="50" y="0" type="line"/>
      <point x="500.6" y="0" type="line"/>
      <point x="500.6" y="52.667" type="line"/>
      <point x="124.2" y="52.667" type="line"/>
      <point x="494.867" y="642.667" type="line"/>
      <point x="494.867" y="688" type="line"/>
      <point x="60.6" y="688" type="line"/>
      <point x="60.6" y="635.333" type="line"/>
      <point x="420.8" y="635.333" type="line"/>
      <point x="50" y="45.333" type="line"/>
    </contour>
  </outline>
</glyph>
<glyph name="_tail.Q" format="2">
  <advance width="152"/>
  <anchor x="49" y="10" name="_bottom"/>
  <outline>
    <contour>
      <point x="20" y="10" type="line"/>
      <point x="51" y="-136" type="line"/>
      <point x="109" y="-136" type="line"/>
      <point x="78" y="10" type="line"/>
    </contour>
  </outline>
</glyph>
<glyph name="a.001" format="2">
  <advance width="568"/>
  <anchor x="313" y="0" name="bottom"/>
  <anchor x="547" y="10" name="ogonek"/>
  <anchor x="313" y="510" name="top"/>
  <outline>
    <contour>
      <point x="232" y="-8" type="curve" smooth="yes"/>
      <point x="330.867" y="-8"/>
      <point x="388.067" y="19"/>
      <point x="413.667" y="78" type="curve"/>
      <point x="417.667" y="78" type="line"/>
      <point x="424.667" y="0" type="line"/>
      <point x="473" y="0" type="line"/>
      <point x="473" y="259" type="line" smooth="yes"/>
      <point x="473" y="479"/>
      <point x="442.267" y="518"/>
      <point x="268.667" y="518" type="curve" smooth="yes"/>
      <point x="206.933" y="518"/>
      <point x="138.667" y="511.4"/>
      <point x="88.8" y="500.333" type="curve"/>
      <point x="88.8" y="452" type="line"/>
      <point x="139.4" y="462.067"/>
      <point x="208.2" y="468"/>
      <point x="273.8" y="468" type="curve" smooth="yes"/>
      <point x="405.733" y="468"/>
      <point x="415" y="458.667"/>
      <point x="415" y="285.667" type="curve" smooth="yes"/>
      <point x="415" y="240.667" type="line" smooth="yes"/>
      <point x="415" y="84"/>
      <point x="377.867" y="43.667"/>
      <point x="238.333" y="43.667" type="curve" smooth="yes"/>
      <point x="142.867" y="43.667"/>
      <point x="121" y="62.333"/>
      <point x="121" y="146.667" type="curve" smooth="yes"/>
      <point x="121" y="227.333"/>
      <point x="145.2" y="245"/>
      <point x="252" y="245" type="curve" smooth="yes"/>
      <point x="430.667" y="245" type="line"/>
      <point x="430.667" y="295" type="line"/>
      <point x="240" y="295" type="line" smooth="yes"/>
      <point x="106.4" y="295"/>
      <point x="63" y="258"/>
      <point x="63" y="146.333" type="curve" smooth="yes"/>
      <point x="63" y="30.333"/>
      <point x="105.067" y="-8"/>
    </contour>
  </outline>
</glyph>
<glyph name="c.001" format="2">
  <advance width="472"/>
  <anchor x="239" y="0" name="bottom"/>
  <anchor x="239" y="510" name="top"/>
  <outline>
    <contour>
      <point x="279" y="-8" type="curve" smooth="yes"/>
      <point x="334.6" y="-8"/>
      <point x="398.2" y="-2"/>
      <point x="436" y="7" type="curve"/>
      <point x="436" y="56.667" type="line"/>
      <point x="395.4" y="47.667"/>
      <point x="328" y="42"/>
      <point x="275" y="42" type="curve" smooth="yes"/>
      <point x="140.333" y="42"/>
      <point x="128" y="58"/>
      <point x="128" y="231" type="curve" smooth="yes"/>
      <point x="128" y="279" type="line" smooth="yes"/>
      <point x="128" y="452"/>
      <point x="140.333" y="468"/>
      <point x="275" y="468" type="curve" smooth="yes"/>
      <point x="326" y="468"/>
      <point x="391.4" y="462.333"/>
      <point x="431" y="453.333" type="curve"/>
      <point x="431" y="503" type="line"/>
      <point x="394.2" y="512"/>
      <point x="332.6" y="518"/>
      <point x="279" y="518" type="curve" smooth="yes"/>
      <point x="101.333" y="518"/>
      <point x="70" y="479"/>
      <point x="70" y="259" type="curve" smooth="yes"/>
      <point x="70" y="251" type="line" smooth="yes"/>
      <point x="70" y="31"/>
      <point x="101.333" y="-8"/>
    </contour>
  </outline>
</glyph>
<glyph name="c.002" format="2">
  <advance width="472"/>
  <anchor x="233" y="0" name="bottom"/>
  <anchor x="233" y="510" name="top"/>
  <outline>
    <contour>
      <point x="273" y="-8" type="curve" smooth="yes"/>
      <point x="326.933" y="-8"/>
      <point x="387.533" y="-2"/>
      <point x="424" y="7" type="curve"/>
      <point x="424" y="56.667" type="line"/>
      <point x="385.4" y="47.667"/>
      <point x="320" y="42"/>
      <point x="269" y="42" type="curve" smooth="yes"/>
      <point x="139.667" y="42"/>
      <point x="128" y="58"/>
      <point x="128" y="231" type="curve" smooth="yes"/>
      <point x="128" y="279" type="line" smooth="yes"/>
      <point x="128" y="452"/>
      <point x="139.667" y="468"/>
      <point x="269" y="468" type="curve" smooth="yes"/>
      <point x="318" y="468"/>
      <point x="381.4" y="462.333"/>
      <point x="419" y="453.333" type="curve"/>
      <point x="419" y="503" type="line"/>
      <point x="383.533" y="512"/>
      <point x="324.6" y="518"/>
      <point x="273" y="518" type="curve" smooth="yes"/>
      <point x="100.333" y="518"/>
      <point x="70" y="479"/>
      <point x="70" y="259" type="curve" smooth="yes"/>
      <point x="70" y="251" type="line" smooth="yes"/>
      <point x="70" y="31"/>
      <point x="100.333" y="-8"/>
    </contour>
  </outline>
</glyph>
<glyph name="e.001" format="2">
  <advance width="566"/>
  <anchor x="274.8" y="0" name="bottom"/>
  <anchor x="518" y="10" name="ogonek"/>
  <anchor x="274.8" y="510" name="top"/>
  <outline>
    <contour>
      <point x="281.2" y="-8" type="curve" smooth="yes"/>
      <point x="349.467" y="-8"/>
      <point x="428.733" y="0"/>
      <point x="472.6" y="12" type="curve"/>
      <point x="472.6" y="60.333" type="line"/>
      <point x="421.133" y="48.667"/>
      <point x="342.133" y="42"/>
      <point x="281.2" y="42" type="curve" smooth="yes"/>
      <point x="139.8" y="42"/>
      <point x="128" y="61"/>
      <point x="128" y="236.667" type="curve" smooth="yes"/>
      <point x="128" y="270.333" type="line" smooth="yes"/>
      <point x="128" y="449.667"/>
      <point x="139.8" y="468"/>
      <point x="281.2" y="468" type="curve" smooth="yes"/>
      <point x="417.4" y="468"/>
      <point x="429" y="453"/>
      <point x="429" y="277.667" type="curve" smooth="yes"/>
      <point x="429" y="250.133" type="line"/>
      <point x="455.533" y="276.667" type="line"/>
      <point x="99.133" y="276.667" type="line"/>
      <point x="99.133" y="226.667" type="line"/>
      <point x="487" y="226.667" type="line"/>
      <point x="487" y="259" type="line" smooth="yes"/>
      <point x="487" y="479"/>
      <point x="456.267" y="518"/>
      <point x="281.2" y="518" type="curve" smooth="yes"/>
      <point x="101.933" y="518"/>
      <point x="70" y="479"/>
      <point x="70" y="259" type="curve" smooth="yes"/>
      <point x="70" y="251" type="line" smooth="yes"/>
      <point x="70" y="31"/>
      <point x="101.933" y="-8"/>
    </contour>
  </outline>
</glyph>
<glyph name="n.001" format="2">
  <advance width="600.8"/>
  <anchor x="300.6" y="0" name="bottom"/>
  <anchor x="300.6" y="510" name="top"/>
  <outline>
    <contour>
      <point x="96.8" y="0" type="line"/>
      <point x="154.8" y="0" type="line"/>
      <point x="154.8" y="269.667" type="line" smooth="yes"/>
      <point x="154.8" y="428.667"/>
      <point x="192.267" y="468"/>
      <point x="325.733" y="468" type="curve" smooth="yes"/>
      <point x="430" y="468"/>
      <point x="450.8" y="441.333"/>
      <point x="450.8" y="310.333" type="curve" smooth="yes"/>
      <point x="450.8" y="0" type="line"/>
      <point x="508.8" y="0" type="line"/>
      <point x="508.8" y="319" type="line" smooth="yes"/>
      <point x="508.8" y="470.8"/>
      <point x="467.933" y="518"/>
      <point x="335.733" y="518" type="curve" smooth="yes"/>
      <point x="238.667" y="518"/>
      <point x="183.667" y="493"/>
      <point x="158.4" y="437" type="curve"/>
      <point x="155.067" y="437" type="line"/>
      <point x="147" y="510" type="line"/>
      <point x="96.8" y="510" type="line"/>
    </contour>
  </outline>
</glyph>
<glyph name="o.002" format="2">
  <advance width="588"/>
  <anchor x="290" y="0" name="bottom"/>
  <anchor x="290" y="255" name="center"/>
  <anchor x="527" y="10" name="ogonek"/>
  <anchor x="290" y="510" name="top"/>
  <anchor x="566" y="510" name="topright"/>
  <outline>
    <contour>
      <point x="292" y="-8" type="curve" smooth="yes"/>
      <point x="475" y="-8"/>
      <point x="508" y="31"/>
      <point x="508" y="251" type="curve" smooth="yes"/>
      <point x="508" y="259" type="line" smooth="yes"/>
      <point x="508" y="479"/>
      <point x="475" y="518"/>
      <point x="292" y="518" type="curve" smooth="yes"/>
      <point x="108" y="518"/>
      <point x="76" y="478"/>
      <point x="76" y="259" type="curve" smooth="yes"/>
      <point x="76" y="251" type="line" smooth="yes"/>
      <point x="76" y="31"/>
      <point x="108" y="-8"/>
    </contour>
    <contour>
      <point x="292" y="42" type="curve" smooth="yes"/>
      <point x="148" y="42"/>
      <point x="134" y="57"/>
      <point x="134" y="228" type="curve" smooth="yes"/>
      <point x="134" y="282" type="line" smooth="yes"/>
      <point x="134" y="454"/>
      <point x="148" y="468"/>
      <point x="292" y="468" type="curve" smooth="yes"/>
      <point x="435" y="468"/>
      <point x="450" y="453"/>
      <point x="450" y="282" type="curve" smooth="yes"/>
      <point x="450" y="228" type="line" smooth="yes"/>
      <point x="450" y="57"/>
      <point x="435" y="42"/>
    </contour>
  </outline>
</glyph>
<glyph name="s.001" format="2">
  <advance width="501"/>
  <anchor x="247" y="0" name="bottom"/>
  <anchor x="247" y="510" name="top"/>
  <outline>
    <contour>
      <point x="236.4" y="-8" type="curve" smooth="yes"/>
      <point x="381.667" y="-8"/>
      <point x="427" y="29"/>
      <point x="427" y="142.667" type="curve" smooth="yes"/>
      <point x="427" y="234.333"/>
      <point x="399.867" y="265.667"/>
      <point x="311.667" y="275.667" type="curve" smooth="yes"/>
      <point x="193.467" y="288" type="line" smooth="yes"/>
      <point x="135.467" y="294.333"/>
      <point x="124" y="307.867"/>
      <point x="124" y="370.467" type="curve" smooth="yes"/>
      <point x="124" y="451.933"/>
      <point x="146.8" y="468.533"/>
      <point x="258.733" y="468.533" type="curve" smooth="yes"/>
      <point x="306.067" y="468.533"/>
      <point x="365.667" y="463.533"/>
      <point x="406.2" y="455.867" type="curve"/>
      <point x="406.2" y="504.533" type="line"/>
      <point x="353.533" y="513.333"/>
      <point x="293.667" y="518.533"/>
      <point x="251.133" y="518.533" type="curve" smooth="yes"/>
      <point x="114.733" y="518.533"/>
      <point x="66" y="478.8"/>
      <point x="66" y="370.6" type="curve" smooth="yes"/>
      <point x="66" y="281.533"/>
      <point x="94.467" y="247.867"/>
      <point x="177.8" y="238.867" type="curve" smooth="yes"/>
      <point x="296" y="226.533" type="line" smooth="yes"/>
      <point x="359.2" y="219.2"/>
      <point x="369" y="207.2"/>
      <point x="369" y="142.667" type="curve" smooth="yes"/>
      <point x="369" y="59.467"/>
      <point x="346.2" y="42"/>
      <point x="232.133" y="42" type="curve" smooth="yes"/>
      <point x="180.4" y="42"/>
      <point x="115.2" y="47"/>
      <point x="70.733" y="54.667" type="curve"/>
      <point x="70.733" y="6" type="line"/>
      <point x="126.6" y="-2.8"/>
      <point x="191.067" y="-8"/>
    </contour>
  </outline>
</glyph>
<glyph name="v.001" format="2">
  <advance width="532"/>
  <anchor x="210.913" y="0" name="bottom"/>
  <anchor x="210.913" y="510" name="top"/>
  <outline>
    <contour>
      <point x="231.4" y="0" type="line"/>
      <point x="283" y="0" type="line"/>
      <point x="487.4" y="510" type="line"/>
      <point x="425.867" y="510" type="line"/>
      <point x="259.2" y="85" type="line"/>
      <point x="255.2" y="85" type="line"/>
      <point x="88.533" y="510" type="line"/>
      <point x="27" y="510" type="line"/>
    </contour>
  </outline>
</glyph>
